<?xml version="1.0" encoding="UTF-8"?>
<svg viewBox="0 0 700 280" xmlns="http://www.w3.org/2000/svg">
<rect width="700" height="280" fill="#f5f0e8" rx="6"/>
<text x="350" y="20" text-anchor="middle" fill="#6a5a48" font-size="11" font-style="italic" font-family="Georgia,serif">Two waves — same speed, different wavelength and frequency</text>
<text x="14" y="52" fill="#5020a0" font-size="10.5" font-weight="bold" font-family="Georgia,serif">Short wavelength — high frequency — high energy — VIOLET / BLUE end</text>
<polyline points="14.0,104.0 15.0,100.6 16.0,97.3 17.0,94.1 18.0,91.0 19.0,88.2 20.0,85.6 21.0,83.4 22.0,81.5 23.0,80.0 24.0,78.9 25.0,78.2 26.0,78.0 27.0,78.2 28.0,78.9 29.0,80.0 30.0,81.5 31.0,83.4 32.0,85.6 33.0,88.2 34.0,91.0 35.0,94.1 36.0,97.3 37.0,100.6 38.0,104.0 39.0,107.4 40.0,110.7 41.0,113.9 42.0,117.0 43.0,119.8 44.0,122.4 45.0,124.6 46.0,126.5 47.0,128.0 48.0,129.1 49.0,129.8 50.0,130.0 51.0,129.8 52.0,129.1 53.0,128.0 54.0,126.5 55.0,124.6 56.0,122.4 57.0,119.8 58.0,117.0 59.0,113.9 60.0,110.7 61.0,107.4 62.0,104.0 63.0,100.6 64.0,97.3 65.0,94.1 66.0,91.0 67.0,88.2 68.0,85.6 69.0,83.4 70.0,81.5 71.0,80.0 72.0,78.9 73.0,78.2 74.0,78.0 75.0,78.2 76.0,78.9 77.0,80.0 78.0,81.5 79.0,83.4 80.0,85.6 81.0,88.2 82.0,91.0 83.0,94.1 84.0,97.3 85.0,100.6 86.0,104.0 87.0,107.4 88.0,110.7 89.0,113.9 90.0,117.0 91.0,119.8 92.0,122.4 93.0,124.6 94.0,126.5 95.0,128.0 96.0,129.1 97.0,129.8 98.0,130.0 99.0,129.8 100.0,129.1 101.0,128.0 102.0,126.5 103.0,124.6 104.0,122.4 105.0,119.8 106.0,117.0 107.0,113.9 108.0,110.7 109.0,107.4 110.0,104.0 111.0,100.6 112.0,97.3 113.0,94.1 114.0,91.0 115.0,88.2 116.0,85.6 117.0,83.4 118.0,81.5 119.0,80.0 120.0,78.9 121.0,78.2 122.0,78.0 123.0,78.2 124.0,78.9 125.0,80.0 126.0,81.5 127.0,83.4 128.0,85.6 129.0,88.2 130.0,91.0 131.0,94.1 132.0,97.3 133.0,100.6 134.0,104.0 135.0,107.4 136.0,110.7 137.0,113.9 138.0,117.0 139.0,119.8 140.0,122.4 141.0,124.6 142.0,126.5 143.0,128.0 144.0,129.1 145.0,129.8 146.0,130.0 147.0,129.8 148.0,129.1 149.0,128.0 150.0,126.5 151.0,124.6 152.0,122.4 153.0,119.8 154.0,117.0 155.0,113.9 156.0,110.7 157.0,107.4 158.0,104.0 159.0,100.6 160.0,97.3 161.0,94.1 162.0,91.0 163.0,88.2 164.0,85.6 165.0,83.4 166.0,81.5 167.0,80.0 168.0,78.9 169.0,78.2 170.0,78.0 171.0,78.2 172.0,78.9 173.0,80.0 174.0,81.5 175.0,83.4 176.0,85.6 177.0,88.2 178.0,91.0 179.0,94.1 180.0,97.3 181.0,100.6 182.0,104.0 183.0,107.4 184.0,110.7 185.0,113.9 186.0,117.0 187.0,119.8 188.0,122.4 189.0,124.6 190.0,126.5 191.0,128.0 192.0,129.1 193.0,129.8 194.0,130.0 195.0,129.8 196.0,129.1 197.0,128.0 198.0,126.5 199.0,124.6 200.0,122.4 201.0,119.8 202.0,117.0 203.0,113.9 204.0,110.7 205.0,107.4 206.0,104.0 207.0,100.6 208.0,97.3 209.0,94.1 210.0,91.0 211.0,88.2 212.0,85.6 213.0,83.4 214.0,81.5 215.0,80.0 216.0,78.9 217.0,78.2 218.0,78.0 219.0,78.2 220.0,78.9 221.0,80.0 222.0,81.5 223.0,83.4 224.0,85.6 225.0,88.2 226.0,91.0 227.0,94.1 228.0,97.3 229.0,100.6 230.0,104.0 231.0,107.4 232.0,110.7 233.0,113.9 234.0,117.0 235.0,119.8 236.0,122.4 237.0,124.6 238.0,126.5 239.0,128.0 240.0,129.1 241.0,129.8 242.0,130.0 243.0,129.8 244.0,129.1 245.0,128.0 246.0,126.5 247.0,124.6 248.0,122.4 249.0,119.8 250.0,117.0 251.0,113.9 252.0,110.7 253.0,107.4 254.0,104.0 255.0,100.6 256.0,97.3 257.0,94.1 258.0,91.0 259.0,88.2 260.0,85.6 261.0,83.4 262.0,81.5 263.0,80.0 264.0,78.9 265.0,78.2 266.0,78.0 267.0,78.2 268.0,78.9 269.0,80.0 270.0,81.5 271.0,83.4 272.0,85.6 273.0,88.2 274.0,91.0 275.0,94.1 276.0,97.3 277.0,100.6 278.0,104.0 279.0,107.4 280.0,110.7 281.0,113.9 282.0,117.0 283.0,119.8 284.0,122.4 285.0,124.6 286.0,126.5 287.0,128.0 288.0,129.1 289.0,129.8 290.0,130.0 291.0,129.8 292.0,129.1 293.0,128.0 294.0,126.5 295.0,124.6 296.0,122.4 297.0,119.8 298.0,117.0 299.0,113.9 300.0,110.7 301.0,107.4 302.0,104.0 303.0,100.6 304.0,97.3 305.0,94.1 306.0,91.0 307.0,88.2 308.0,85.6 309.0,83.4 310.0,81.5 311.0,80.0 312.0,78.9 313.0,78.2 314.0,78.0 315.0,78.2 316.0,78.9 317.0,80.0 318.0,81.5 319.0,83.4 320.0,85.6 321.0,88.2 322.0,91.0 323.0,94.1 324.0,97.3 325.0,100.6 326.0,104.0 327.0,107.4 328.0,110.7 329.0,113.9 330.0,117.0 331.0,119.8 332.0,122.4 333.0,124.6 334.0,126.5 335.0,128.0 336.0,129.1 337.0,129.8 338.0,130.0 339.0,129.8 340.0,129.1 341.0,128.0 342.0,126.5 343.0,124.6 344.0,122.4 345.0,119.8 346.0,117.0 347.0,113.9 348.0,110.7 349.0,107.4 350.0,104.0 351.0,100.6 352.0,97.3 353.0,94.1 354.0,91.0 355.0,88.2 356.0,85.6 357.0,83.4 358.0,81.5 359.0,80.0 360.0,78.9 361.0,78.2 362.0,78.0 363.0,78.2 364.0,78.9 365.0,80.0 366.0,81.5 367.0,83.4 368.0,85.6 369.0,88.2 370.0,91.0 371.0,94.1 372.0,97.3 373.0,100.6 374.0,104.0 375.0,107.4 376.0,110.7 377.0,113.9 378.0,117.0 379.0,119.8 380.0,122.4 381.0,124.6 382.0,126.5 383.0,128.0 384.0,129.1 385.0,129.8 386.0,130.0 387.0,129.8 388.0,129.1 389.0,128.0 390.0,126.5 391.0,124.6 392.0,122.4 393.0,119.8 394.0,117.0 395.0,113.9 396.0,110.7 397.0,107.4 398.0,104.0 399.0,100.6 400.0,97.3 401.0,94.1 402.0,91.0 403.0,88.2 404.0,85.6 405.0,83.4 406.0,81.5 407.0,80.0 408.0,78.9 409.0,78.2 410.0,78.0 411.0,78.2 412.0,78.9 413.0,80.0 414.0,81.5 415.0,83.4 416.0,85.6 417.0,88.2 418.0,91.0 419.0,94.1 420.0,97.3 421.0,100.6 422.0,104.0 423.0,107.4 424.0,110.7 425.0,113.9 426.0,117.0 427.0,119.8 428.0,122.4 429.0,124.6 430.0,126.5 431.0,128.0 432.0,129.1 433.0,129.8 434.0,130.0 435.0,129.8 436.0,129.1 437.0,128.0 438.0,126.5 439.0,124.6 440.0,122.4 441.0,119.8 442.0,117.0 443.0,113.9 444.0,110.7 445.0,107.4 446.0,104.0 447.0,100.6 448.0,97.3 449.0,94.1 450.0,91.0 451.0,88.2 452.0,85.6 453.0,83.4 454.0,81.5 455.0,80.0 456.0,78.9 457.0,78.2 458.0,78.0 459.0,78.2 460.0,78.9 461.0,80.0 462.0,81.5 463.0,83.4 464.0,85.6 465.0,88.2 466.0,91.0 467.0,94.1 468.0,97.3 469.0,100.6 470.0,104.0 471.0,107.4 472.0,110.7 473.0,113.9 474.0,117.0 475.0,119.8 476.0,122.4 477.0,124.6 478.0,126.5 479.0,128.0 480.0,129.1 481.0,129.8 482.0,130.0 483.0,129.8 484.0,129.1 485.0,128.0 486.0,126.5 487.0,124.6 488.0,122.4 489.0,119.8 490.0,117.0 491.0,113.9 492.0,110.7 493.0,107.4 494.0,104.0 495.0,100.6 496.0,97.3 497.0,94.1 498.0,91.0 499.0,88.2 500.0,85.6 501.0,83.4 502.0,81.5 503.0,80.0 504.0,78.9 505.0,78.2 506.0,78.0 507.0,78.2 508.0,78.9 509.0,80.0 510.0,81.5 511.0,83.4 512.0,85.6 513.0,88.2 514.0,91.0 515.0,94.1 516.0,97.3 517.0,100.6 518.0,104.0 519.0,107.4 520.0,110.7 521.0,113.9 522.0,117.0 523.0,119.8 524.0,122.4 525.0,124.6 526.0,126.5 527.0,128.0 528.0,129.1 529.0,129.8 530.0,130.0 531.0,129.8 532.0,129.1 533.0,128.0 534.0,126.5 535.0,124.6 536.0,122.4 537.0,119.8 538.0,117.0 539.0,113.9 540.0,110.7 541.0,107.4 542.0,104.0 543.0,100.6 544.0,97.3 545.0,94.1 546.0,91.0 547.0,88.2 548.0,85.6 549.0,83.4 550.0,81.5 551.0,80.0 552.0,78.9 553.0,78.2 554.0,78.0 555.0,78.2 556.0,78.9 557.0,80.0 558.0,81.5 559.0,83.4 560.0,85.6 561.0,88.2 562.0,91.0 563.0,94.1 564.0,97.3 565.0,100.6 566.0,104.0 567.0,107.4 568.0,110.7 569.0,113.9 570.0,117.0 571.0,119.8 572.0,122.4 573.0,124.6 574.0,126.5 575.0,128.0 576.0,129.1 577.0,129.8 578.0,130.0 579.0,129.8 580.0,129.1 581.0,128.0 582.0,126.5 583.0,124.6 584.0,122.4 585.0,119.8 586.0,117.0 587.0,113.9 588.0,110.7 589.0,107.4 590.0,104.0 591.0,100.6 592.0,97.3 593.0,94.1 594.0,91.0 595.0,88.2 596.0,85.6 597.0,83.4 598.0,81.5 599.0,80.0 600.0,78.9 601.0,78.2 602.0,78.0 603.0,78.2 604.0,78.9 605.0,80.0 606.0,81.5 607.0,83.4 608.0,85.6 609.0,88.2 610.0,91.0 611.0,94.1 612.0,97.3 613.0,100.6 614.0,104.0 615.0,107.4 616.0,110.7 617.0,113.9 618.0,117.0 619.0,119.8 620.0,122.4 621.0,124.6 622.0,126.5 623.0,128.0 624.0,129.1 625.0,129.8 626.0,130.0 627.0,129.8 628.0,129.1 629.0,128.0 630.0,126.5 631.0,124.6 632.0,122.4 633.0,119.8 634.0,117.0 635.0,113.9 636.0,110.7 637.0,107.4 638.0,104.0 639.0,100.6 640.0,97.3 641.0,94.1 642.0,91.0 643.0,88.2 644.0,85.6 645.0,83.4 646.0,81.5 647.0,80.0 648.0,78.9 649.0,78.2 650.0,78.0 651.0,78.2 652.0,78.9 653.0,80.0 654.0,81.5 655.0,83.4 656.0,85.6 657.0,88.2 658.0,91.0 659.0,94.1 660.0,97.3 661.0,100.6 662.0,104.0 663.0,107.4 664.0,110.7 665.0,113.9 666.0,117.0 667.0,119.8 668.0,122.4 669.0,124.6 670.0,126.5 671.0,128.0 672.0,129.1 673.0,129.8 674.0,130.0 675.0,129.8 676.0,129.1 677.0,128.0 678.0,126.5 679.0,124.6 680.0,122.4 681.0,119.8 682.0,117.0 683.0,113.9 684.0,110.7 685.0,107.4 686.0,104.0" fill="none" stroke="#5020a0" stroke-width="3" stroke-linejoin="round"/>

<line x1="14" y1="120" x2="62" y2="120" stroke="#6a5a48" stroke-width="1" stroke-dasharray="3,2"/>
<line x1="14" y1="115" x2="14" y2="125" stroke="#6a5a48" stroke-width="1"/>
<line x1="62" y1="115" x2="62" y2="125" stroke="#6a5a48" stroke-width="1"/>
<text x="38" y="138" text-anchor="middle" fill="#6a5a48" font-size="9" font-family="Georgia,serif">one wavelength ≈ 420nm</text>

<line x1="14" y1="144" x2="682" y2="144" stroke="#d0c8b8" stroke-width="1" stroke-dasharray="5,4"/>
<polygon points="682,141 692,144 682,147" fill="#d0c8b8"/>
<text x="350" y="140" text-anchor="middle" fill="#6a5a48" font-size="9" font-family="Georgia,serif">direction of travel →</text>
<text x="14" y="165" fill="#a81010" font-size="10.5" font-weight="bold" font-family="Georgia,serif">Long wavelength — low frequency — low energy — ORANGE / RED end</text>
<polyline points="14.0,222.0 15.0,220.3 16.0,218.6 17.0,216.9 18.0,215.3 19.0,213.6 20.0,212.1 21.0,210.5 22.0,209.0 23.0,207.6 24.0,206.2 25.0,204.9 26.0,203.6 27.0,202.5 28.0,201.4 29.0,200.4 30.0,199.5 31.0,198.7 32.0,198.0 33.0,197.4 34.0,196.9 35.0,196.5 36.0,196.2 37.0,196.1 38.0,196.0 39.0,196.1 40.0,196.2 41.0,196.5 42.0,196.9 43.0,197.4 44.0,198.0 45.0,198.7 46.0,199.5 47.0,200.4 48.0,201.4 49.0,202.5 50.0,203.6 51.0,204.9 52.0,206.2 53.0,207.6 54.0,209.0 55.0,210.5 56.0,212.1 57.0,213.6 58.0,215.3 59.0,216.9 60.0,218.6 61.0,220.3 62.0,222.0 63.0,223.7 64.0,225.4 65.0,227.1 66.0,228.7 67.0,230.4 68.0,231.9 69.0,233.5 70.0,235.0 71.0,236.4 72.0,237.8 73.0,239.1 74.0,240.4 75.0,241.5 76.0,242.6 77.0,243.6 78.0,244.5 79.0,245.3 80.0,246.0 81.0,246.6 82.0,247.1 83.0,247.5 84.0,247.8 85.0,247.9 86.0,248.0 87.0,247.9 88.0,247.8 89.0,247.5 90.0,247.1 91.0,246.6 92.0,246.0 93.0,245.3 94.0,244.5 95.0,243.6 96.0,242.6 97.0,241.5 98.0,240.4 99.0,239.1 100.0,237.8 101.0,236.4 102.0,235.0 103.0,233.5 104.0,231.9 105.0,230.4 106.0,228.7 107.0,227.1 108.0,225.4 109.0,223.7 110.0,222.0 111.0,220.3 112.0,218.6 113.0,216.9 114.0,215.3 115.0,213.6 116.0,212.1 117.0,210.5 118.0,209.0 119.0,207.6 120.0,206.2 121.0,204.9 122.0,203.6 123.0,202.5 124.0,201.4 125.0,200.4 126.0,199.5 127.0,198.7 128.0,198.0 129.0,197.4 130.0,196.9 131.0,196.5 132.0,196.2 133.0,196.1 134.0,196.0 135.0,196.1 136.0,196.2 137.0,196.5 138.0,196.9 139.0,197.4 140.0,198.0 141.0,198.7 142.0,199.5 143.0,200.4 144.0,201.4 145.0,202.5 146.0,203.6 147.0,204.9 148.0,206.2 149.0,207.6 150.0,209.0 151.0,210.5 152.0,212.1 153.0,213.6 154.0,215.3 155.0,216.9 156.0,218.6 157.0,220.3 158.0,222.0 159.0,223.7 160.0,225.4 161.0,227.1 162.0,228.7 163.0,230.4 164.0,231.9 165.0,233.5 166.0,235.0 167.0,236.4 168.0,237.8 169.0,239.1 170.0,240.4 171.0,241.5 172.0,242.6 173.0,243.6 174.0,244.5 175.0,245.3 176.0,246.0 177.0,246.6 178.0,247.1 179.0,247.5 180.0,247.8 181.0,247.9 182.0,248.0 183.0,247.9 184.0,247.8 185.0,247.5 186.0,247.1 187.0,246.6 188.0,246.0 189.0,245.3 190.0,244.5 191.0,243.6 192.0,242.6 193.0,241.5 194.0,240.4 195.0,239.1 196.0,237.8 197.0,236.4 198.0,235.0 199.0,233.5 200.0,231.9 201.0,230.4 202.0,228.7 203.0,227.1 204.0,225.4 205.0,223.7 206.0,222.0 207.0,220.3 208.0,218.6 209.0,216.9 210.0,215.3 211.0,213.6 212.0,212.1 213.0,210.5 214.0,209.0 215.0,207.6 216.0,206.2 217.0,204.9 218.0,203.6 219.0,202.5 220.0,201.4 221.0,200.4 222.0,199.5 223.0,198.7 224.0,198.0 225.0,197.4 226.0,196.9 227.0,196.5 228.0,196.2 229.0,196.1 230.0,196.0 231.0,196.1 232.0,196.2 233.0,196.5 234.0,196.9 235.0,197.4 236.0,198.0 237.0,198.7 238.0,199.5 239.0,200.4 240.0,201.4 241.0,202.5 242.0,203.6 243.0,204.9 244.0,206.2 245.0,207.6 246.0,209.0 247.0,210.5 248.0,212.1 249.0,213.6 250.0,215.3 251.0,216.9 252.0,218.6 253.0,220.3 254.0,222.0 255.0,223.7 256.0,225.4 257.0,227.1 258.0,228.7 259.0,230.4 260.0,231.9 261.0,233.5 262.0,235.0 263.0,236.4 264.0,237.8 265.0,239.1 266.0,240.4 267.0,241.5 268.0,242.6 269.0,243.6 270.0,244.5 271.0,245.3 272.0,246.0 273.0,246.6 274.0,247.1 275.0,247.5 276.0,247.8 277.0,247.9 278.0,248.0 279.0,247.9 280.0,247.8 281.0,247.5 282.0,247.1 283.0,246.6 284.0,246.0 285.0,245.3 286.0,244.5 287.0,243.6 288.0,242.6 289.0,241.5 290.0,240.4 291.0,239.1 292.0,237.8 293.0,236.4 294.0,235.0 295.0,233.5 296.0,231.9 297.0,230.4 298.0,228.7 299.0,227.1 300.0,225.4 301.0,223.7 302.0,222.0 303.0,220.3 304.0,218.6 305.0,216.9 306.0,215.3 307.0,213.6 308.0,212.1 309.0,210.5 310.0,209.0 311.0,207.6 312.0,206.2 313.0,204.9 314.0,203.6 315.0,202.5 316.0,201.4 317.0,200.4 318.0,199.5 319.0,198.7 320.0,198.0 321.0,197.4 322.0,196.9 323.0,196.5 324.0,196.2 325.0,196.1 326.0,196.0 327.0,196.1 328.0,196.2 329.0,196.5 330.0,196.9 331.0,197.4 332.0,198.0 333.0,198.7 334.0,199.5 335.0,200.4 336.0,201.4 337.0,202.5 338.0,203.6 339.0,204.9 340.0,206.2 341.0,207.6 342.0,209.0 343.0,210.5 344.0,212.1 345.0,213.6 346.0,215.3 347.0,216.9 348.0,218.6 349.0,220.3 350.0,222.0 351.0,223.7 352.0,225.4 353.0,227.1 354.0,228.7 355.0,230.4 356.0,231.9 357.0,233.5 358.0,235.0 359.0,236.4 360.0,237.8 361.0,239.1 362.0,240.4 363.0,241.5 364.0,242.6 365.0,243.6 366.0,244.5 367.0,245.3 368.0,246.0 369.0,246.6 370.0,247.1 371.0,247.5 372.0,247.8 373.0,247.9 374.0,248.0 375.0,247.9 376.0,247.8 377.0,247.5 378.0,247.1 379.0,246.6 380.0,246.0 381.0,245.3 382.0,244.5 383.0,243.6 384.0,242.6 385.0,241.5 386.0,240.4 387.0,239.1 388.0,237.8 389.0,236.4 390.0,235.0 391.0,233.5 392.0,231.9 393.0,230.4 394.0,228.7 395.0,227.1 396.0,225.4 397.0,223.7 398.0,222.0 399.0,220.3 400.0,218.6 401.0,216.9 402.0,215.3 403.0,213.6 404.0,212.1 405.0,210.5 406.0,209.0 407.0,207.6 408.0,206.2 409.0,204.9 410.0,203.6 411.0,202.5 412.0,201.4 413.0,200.4 414.0,199.5 415.0,198.7 416.0,198.0 417.0,197.4 418.0,196.9 419.0,196.5 420.0,196.2 421.0,196.1 422.0,196.0 423.0,196.1 424.0,196.2 425.0,196.5 426.0,196.9 427.0,197.4 428.0,198.0 429.0,198.7 430.0,199.5 431.0,200.4 432.0,201.4 433.0,202.5 434.0,203.6 435.0,204.9 436.0,206.2 437.0,207.6 438.0,209.0 439.0,210.5 440.0,212.1 441.0,213.6 442.0,215.3 443.0,216.9 444.0,218.6 445.0,220.3 446.0,222.0 447.0,223.7 448.0,225.4 449.0,227.1 450.0,228.7 451.0,230.4 452.0,231.9 453.0,233.5 454.0,235.0 455.0,236.4 456.0,237.8 457.0,239.1 458.0,240.4 459.0,241.5 460.0,242.6 461.0,243.6 462.0,244.5 463.0,245.3 464.0,246.0 465.0,246.6 466.0,247.1 467.0,247.5 468.0,247.8 469.0,247.9 470.0,248.0 471.0,247.9 472.0,247.8 473.0,247.5 474.0,247.1 475.0,246.6 476.0,246.0 477.0,245.3 478.0,244.5 479.0,243.6 480.0,242.6 481.0,241.5 482.0,240.4 483.0,239.1 484.0,237.8 485.0,236.4 486.0,235.0 487.0,233.5 488.0,231.9 489.0,230.4 490.0,228.7 491.0,227.1 492.0,225.4 493.0,223.7 494.0,222.0 495.0,220.3 496.0,218.6 497.0,216.9 498.0,215.3 499.0,213.6 500.0,212.1 501.0,210.5 502.0,209.0 503.0,207.6 504.0,206.2 505.0,204.9 506.0,203.6 507.0,202.5 508.0,201.4 509.0,200.4 510.0,199.5 511.0,198.7 512.0,198.0 513.0,197.4 514.0,196.9 515.0,196.5 516.0,196.2 517.0,196.1 518.0,196.0 519.0,196.1 520.0,196.2 521.0,196.5 522.0,196.9 523.0,197.4 524.0,198.0 525.0,198.7 526.0,199.5 527.0,200.4 528.0,201.4 529.0,202.5 530.0,203.6 531.0,204.9 532.0,206.2 533.0,207.6 534.0,209.0 535.0,210.5 536.0,212.1 537.0,213.6 538.0,215.3 539.0,216.9 540.0,218.6 541.0,220.3 542.0,222.0 543.0,223.7 544.0,225.4 545.0,227.1 546.0,228.7 547.0,230.4 548.0,231.9 549.0,233.5 550.0,235.0 551.0,236.4 552.0,237.8 553.0,239.1 554.0,240.4 555.0,241.5 556.0,242.6 557.0,243.6 558.0,244.5 559.0,245.3 560.0,246.0 561.0,246.6 562.0,247.1 563.0,247.5 564.0,247.8 565.0,247.9 566.0,248.0 567.0,247.9 568.0,247.8 569.0,247.5 570.0,247.1 571.0,246.6 572.0,246.0 573.0,245.3 574.0,244.5 575.0,243.6 576.0,242.6 577.0,241.5 578.0,240.4 579.0,239.1 580.0,237.8 581.0,236.4 582.0,235.0 583.0,233.5 584.0,231.9 585.0,230.4 586.0,228.7 587.0,227.1 588.0,225.4 589.0,223.7 590.0,222.0 591.0,220.3 592.0,218.6 593.0,216.9 594.0,215.3 595.0,213.6 596.0,212.1 597.0,210.5 598.0,209.0 599.0,207.6 600.0,206.2 601.0,204.9 602.0,203.6 603.0,202.5 604.0,201.4 605.0,200.4 606.0,199.5 607.0,198.7 608.0,198.0 609.0,197.4 610.0,196.9 611.0,196.5 612.0,196.2 613.0,196.1 614.0,196.0 615.0,196.1 616.0,196.2 617.0,196.5 618.0,196.9 619.0,197.4 620.0,198.0 621.0,198.7 622.0,199.5 623.0,200.4 624.0,201.4 625.0,202.5 626.0,203.6 627.0,204.9 628.0,206.2 629.0,207.6 630.0,209.0 631.0,210.5 632.0,212.1 633.0,213.6 634.0,215.3 635.0,216.9 636.0,218.6 637.0,220.3 638.0,222.0 639.0,223.7 640.0,225.4 641.0,227.1 642.0,228.7 643.0,230.4 644.0,231.9 645.0,233.5 646.0,235.0 647.0,236.4 648.0,237.8 649.0,239.1 650.0,240.4 651.0,241.5 652.0,242.6 653.0,243.6 654.0,244.5 655.0,245.3 656.0,246.0 657.0,246.6 658.0,247.1 659.0,247.5 660.0,247.8 661.0,247.9 662.0,248.0 663.0,247.9 664.0,247.8 665.0,247.5 666.0,247.1 667.0,246.6 668.0,246.0 669.0,245.3 670.0,244.5 671.0,243.6 672.0,242.6 673.0,241.5 674.0,240.4 675.0,239.1 676.0,237.8 677.0,236.4 678.0,235.0 679.0,233.5 680.0,231.9 681.0,230.4 682.0,228.7 683.0,227.1 684.0,225.4 685.0,223.7 686.0,222.0" fill="none" stroke="#a81010" stroke-width="3" stroke-linejoin="round"/>

<line x1="14" y1="242" x2="110" y2="242" stroke="#6a5a48" stroke-width="1" stroke-dasharray="3,2"/>
<line x1="14" y1="237" x2="14" y2="247" stroke="#6a5a48" stroke-width="1"/>
<line x1="110" y1="237" x2="110" y2="247" stroke="#6a5a48" stroke-width="1"/>
<text x="62" y="260" text-anchor="middle" fill="#6a5a48" font-size="9" font-family="Georgia,serif">one wavelength ≈ 650nm</text>
</svg>
