<?xml version="1.0" encoding="UTF-8"?>
<svg viewBox="0 0 700 244" xmlns="http://www.w3.org/2000/svg">
<rect width="700" height="244" fill="#f5f0e8" rx="6"/>
<circle cx="60" cy="120" r="32" fill="#f8e870" stroke="#c8a000" stroke-width="2" opacity="0.9"/>
<text x="60" y="116" text-anchor="middle" fill="#6a4000" font-size="9" font-weight="bold" font-family="Georgia,serif">WHITE</text>
<text x="60" y="128" text-anchor="middle" fill="#6a4000" font-size="9" font-weight="bold" font-family="Georgia,serif">LIGHT</text>
<line x1="92" y1="114" x2="295" y2="112" stroke="#6a5a48" stroke-width="1.5"/>
<line x1="92" y1="120" x2="295" y2="120" stroke="#6a5a48" stroke-width="1.5"/>
<line x1="92" y1="126" x2="295" y2="128" stroke="#6a5a48" stroke-width="1.5"/>
<polygon points="295,52 370,120 295,190" fill="#dce8f0" stroke="#8ab0c0" stroke-width="1.5" opacity="0.85"/>
<text x="318" y="124" text-anchor="middle" fill="#6a5a48" font-size="9" font-family="Georgia,serif">prism</text>
<line x1="370" y1="120" x2="530" y2="28" stroke="#5020a0" stroke-width="2.5" stroke-linecap="round"/>
<text x="538" y="32" fill="#5020a0" font-size="9" font-family="Georgia,serif">Violet 380nm</text>
<line x1="370" y1="120" x2="530" y2="54" stroke="#1040c0" stroke-width="2.5" stroke-linecap="round"/>
<text x="538" y="58" fill="#1040c0" font-size="9" font-family="Georgia,serif">Blue 430nm</text>
<line x1="370" y1="120" x2="530" y2="78" stroke="#0898a8" stroke-width="2.5" stroke-linecap="round"/>
<text x="538" y="82" fill="#0898a8" font-size="9" font-family="Georgia,serif">Cyan 490nm</text>
<line x1="370" y1="120" x2="530" y2="104" stroke="#208030" stroke-width="2.5" stroke-linecap="round"/>
<text x="538" y="108" fill="#208030" font-size="9" font-family="Georgia,serif">Green 530nm</text>
<line x1="370" y1="120" x2="530" y2="128" stroke="#a89000" stroke-width="2.5" stroke-linecap="round"/>
<text x="538" y="132" fill="#a89000" font-size="9" font-family="Georgia,serif">Yellow 570nm</text>
<line x1="370" y1="120" x2="530" y2="154" stroke="#c04808" stroke-width="2.5" stroke-linecap="round"/>
<text x="538" y="158" fill="#c04808" font-size="9" font-family="Georgia,serif">Orange 610nm</text>
<line x1="370" y1="120" x2="530" y2="178" stroke="#a81010" stroke-width="2.5" stroke-linecap="round"/>
<text x="538" y="182" fill="#a81010" font-size="9" font-family="Georgia,serif">Red 650nm</text>
<line x1="370" y1="120" x2="530" y2="204" stroke="#600808" stroke-width="2.5" stroke-linecap="round"/>
<text x="538" y="208" fill="#600808" font-size="9" font-family="Georgia,serif">Deep red 700nm</text>

<defs><linearGradient id="sg3" x1="0" y1="0" x2="0" y2="1">
<stop offset="0%" stop-color="#5020a0"/><stop offset="14%" stop-color="#1040c0"/>
<stop offset="28%" stop-color="#0898a8"/><stop offset="43%" stop-color="#208030"/>
<stop offset="57%" stop-color="#a89000"/><stop offset="71%" stop-color="#c04808"/>
<stop offset="85%" stop-color="#a81010"/><stop offset="100%" stop-color="#600808"/>
</linearGradient></defs>
<rect x="524" y="26" width="10" height="184" fill="url(#sg3)" rx="2"/>
</svg>
