<?xml version="1.0" encoding="UTF-8"?>
<svg viewBox="0 0 700 200" xmlns="http://www.w3.org/2000/svg">
<rect width="700" height="200" fill="#f5f0e8" rx="6"/>
<text x="200" y="28" text-anchor="middle" fill="#1040c0" font-size="10" font-weight="bold" font-family="Georgia,serif">REFLECTED → eye sees blue</text>
<text x="520" y="28" text-anchor="middle" fill="#c04808" font-size="10" font-weight="bold" font-family="Georgia,serif">ABSORBED by lazurite</text>
<rect x="60.0" y="48" width="90.6" height="46" fill="#5820a8" opacity="1.0"/>
<rect x="150.6" y="48" width="108.8" height="46" fill="#1840c8" opacity="1.0"/>
<rect x="259.4" y="48" width="72.5" height="46" fill="#10a0b0" opacity="1.0"/>
<rect x="331.9" y="48" width="90.6" height="46" fill="#28a040" opacity="0.3"/>
<rect x="422.5" y="48" width="72.5" height="46" fill="#c0a000" opacity="0.3"/>
<rect x="495.0" y="48" width="72.5" height="46" fill="#d05010" opacity="0.3"/>
<rect x="567.5" y="48" width="72.5" height="46" fill="#b01010" opacity="0.3"/>

<rect x="60" y="48" width="580" height="46" fill="none" stroke="#b0a090" stroke-width="1" rx="1"/>
<line x1="331.9" y1="36" x2="331.9" y2="98" stroke="#c04808" stroke-width="1.5" stroke-dasharray="4,3"/>
<line x1="60.0" y1="94" x2="60.0" y2="102" stroke="#1a1208" stroke-width="1"/>
<text x="60.0" y="114" text-anchor="middle" fill="#1a1208" font-size="9" font-family="Georgia,serif">380</text>
<line x1="150.6" y1="94" x2="150.6" y2="102" stroke="#1a1208" stroke-width="1"/>
<text x="150.6" y="114" text-anchor="middle" fill="#1a1208" font-size="9" font-family="Georgia,serif">430</text>
<line x1="259.4" y1="94" x2="259.4" y2="102" stroke="#1a1208" stroke-width="1"/>
<text x="259.4" y="114" text-anchor="middle" fill="#1a1208" font-size="9" font-family="Georgia,serif">490</text>
<line x1="331.9" y1="94" x2="331.9" y2="102" stroke="#1a1208" stroke-width="1"/>
<text x="331.9" y="114" text-anchor="middle" fill="#1a1208" font-size="9" font-family="Georgia,serif">530</text>
<line x1="422.5" y1="94" x2="422.5" y2="102" stroke="#1a1208" stroke-width="1"/>
<text x="422.5" y="114" text-anchor="middle" fill="#1a1208" font-size="9" font-family="Georgia,serif">580</text>
<line x1="495.0" y1="94" x2="495.0" y2="102" stroke="#1a1208" stroke-width="1"/>
<text x="495.0" y="114" text-anchor="middle" fill="#1a1208" font-size="9" font-family="Georgia,serif">620</text>
<line x1="640.0" y1="94" x2="640.0" y2="102" stroke="#1a1208" stroke-width="1"/>
<text x="640.0" y="114" text-anchor="middle" fill="#1a1208" font-size="9" font-family="Georgia,serif">700</text>

<text x="195.9" y="126" text-anchor="middle" fill="#1040c0" font-size="9" font-family="Georgia,serif">violet → blue → cyan  380–530nm</text>
<text x="540.3" y="126" text-anchor="middle" fill="#c04808" font-size="9" font-family="Georgia,serif">green → yellow → orange → red  530–700nm</text>
<rect x="60" y="144" width="76" height="40" rx="4" fill="#14245a" stroke="#2a4070" stroke-width="1.5"/>
<circle cx="84" cy="162" r="3" fill="#c89020" opacity="0.9"/>
<circle cx="104" cy="170" r="2.5" fill="#c89020" opacity="0.8"/>
<circle cx="94" cy="156" r="2" fill="#c89020" opacity="0.7"/>
<text x="98" y="194" text-anchor="middle" fill="#6a5a48" font-size="9" font-style="italic" font-family="Georgia,serif">lapis lazuli</text>
<text x="165" y="156" fill="#1a1208" font-size="10.5" font-family="Georgia,serif">The stone appears this deep blue-violet color</text>
<text x="165" y="172" fill="#6a5a48" font-size="9" font-style="italic" font-family="Georgia,serif">Not bright cerulean — darker, with violet quality</text>
<text x="165" y="186" fill="#6a5a48" font-size="9" font-style="italic" font-family="Georgia,serif">Gold flecks are iron pyrite inclusions</text>
</svg>
