<?xml version="1.0" encoding="UTF-8"?>
<svg viewBox="0 0 700 530" xmlns="http://www.w3.org/2000/svg">
<rect x="0" y="0" width="700" height="530" fill="#12100e" rx="6"/>
<line x1="40" y1="240" x2="660" y2="240" stroke="#3a3428" stroke-width="1" stroke-dasharray="4,4"/>

<polygon points="105.3,132.5 75.0,150.0 44.7,132.5 44.7,97.5 75.0,80.0 105.3,97.5" fill="none" stroke="#a8988a" stroke-width="2.2" stroke-linejoin="round"/>
<circle cx="75.0" cy="115.0" r="19.2" fill="none" stroke="#a8988a" stroke-width="1.3" stroke-dasharray="4,3" opacity="0.75"/>
<polygon points="305.3,132.5 275.0,150.0 244.7,132.5 244.7,97.5 275.0,80.0 305.3,97.5" fill="none" stroke="#a8988a" stroke-width="2.2" stroke-linejoin="round"/>
<circle cx="275.0" cy="115.0" r="19.2" fill="none" stroke="#a8988a" stroke-width="1.3" stroke-dasharray="4,3" opacity="0.75"/>
<line x1="105.3" y1="97.5" x2="117.0" y2="88.0" stroke="#a8988a" stroke-width="2.2" stroke-linecap="round"/>
<line x1="105.3" y1="132.5" x2="117.0" y2="142.0" stroke="#a8988a" stroke-width="2.2" stroke-linecap="round"/>
<line x1="244.7" y1="97.5" x2="233.0" y2="88.0" stroke="#a8988a" stroke-width="2.2" stroke-linecap="round"/>
<line x1="244.7" y1="132.5" x2="233.0" y2="142.0" stroke="#a8988a" stroke-width="2.2" stroke-linecap="round"/>
<line x1="117.0" y1="88.0" x2="155.0" y2="115.0" stroke="#a8988a" stroke-width="2.2" stroke-linecap="round"/>
<line x1="233.0" y1="88.0" x2="195.0" y2="115.0" stroke="#a8988a" stroke-width="2.2" stroke-linecap="round"/>
<line x1="117.0" y1="142.0" x2="155.0" y2="115.0" stroke="#a8988a" stroke-width="2.2" stroke-linecap="round"/>
<line x1="233.0" y1="142.0" x2="195.0" y2="115.0" stroke="#a8988a" stroke-width="2.2" stroke-linecap="round"/>
<line x1="119.2" y1="88.6" x2="131.2" y2="45.6" stroke="#dd4444" stroke-width="2" stroke-linecap="round"/>
<line x1="114.8" y1="87.4" x2="126.8" y2="44.4" stroke="#dd4444" stroke-width="2" stroke-linecap="round"/>
<line x1="230.8" y1="141.4" x2="218.8" y2="184.4" stroke="#dd4444" stroke-width="2" stroke-linecap="round"/>
<line x1="235.2" y1="142.6" x2="223.2" y2="185.6" stroke="#dd4444" stroke-width="2" stroke-linecap="round"/>
<line x1="233.0" y1="88.0" x2="221.0" y2="55.0" stroke="#a8988a" stroke-width="1.8" stroke-linecap="round"/>
<line x1="117.0" y1="142.0" x2="129.0" y2="175.0" stroke="#a8988a" stroke-width="1.8" stroke-linecap="round"/>
<line x1="155.0" y1="112.0" x2="195.0" y2="112.0" stroke="#e8c000" stroke-width="2.8" stroke-linecap="round"/>
<line x1="155.0" y1="118.0" x2="195.0" y2="118.0" stroke="#e8c000" stroke-width="2.8" stroke-linecap="round"/>
<circle cx="129.0" cy="45.0" r="18" fill="#dd2222" opacity="0.15"/>
<circle cx="129.0" cy="45.0" r="13" fill="#dd2222" stroke="#aa1111" stroke-width="1.8"/>
<text x="129.0" y="45.0" text-anchor="middle" dominant-baseline="central" fill="white" font-size="10" font-weight="bold" font-family="Courier New,monospace">O</text>
<circle cx="221.0" cy="185.0" r="18" fill="#dd2222" opacity="0.15"/>
<circle cx="221.0" cy="185.0" r="13" fill="#dd2222" stroke="#aa1111" stroke-width="1.8"/>
<text x="221.0" y="185.0" text-anchor="middle" dominant-baseline="central" fill="white" font-size="10" font-weight="bold" font-family="Courier New,monospace">O</text>
<circle cx="117.0" cy="88.0" r="13" fill="#909090" opacity="0.12"/>
<circle cx="117.0" cy="88.0" r="10" fill="#909090" stroke="#606060" stroke-width="1.5"/>
<text x="117.0" y="88.0" text-anchor="middle" dominant-baseline="central" fill="white" font-size="8" font-weight="bold" font-family="Courier New,monospace">C</text>
<circle cx="233.0" cy="142.0" r="13" fill="#909090" opacity="0.12"/>
<circle cx="233.0" cy="142.0" r="10" fill="#909090" stroke="#606060" stroke-width="1.5"/>
<text x="233.0" y="142.0" text-anchor="middle" dominant-baseline="central" fill="white" font-size="8" font-weight="bold" font-family="Courier New,monospace">C</text>
<circle cx="233.0" cy="88.0" r="18" fill="#3366dd" opacity="0.15"/>
<circle cx="233.0" cy="88.0" r="13" fill="#3366dd" stroke="#2244aa" stroke-width="1.8"/>
<text x="233.0" y="88.0" text-anchor="middle" dominant-baseline="central" fill="white" font-size="10" font-weight="bold" font-family="Courier New,monospace">N</text>
<circle cx="117.0" cy="142.0" r="18" fill="#3366dd" opacity="0.15"/>
<circle cx="117.0" cy="142.0" r="13" fill="#3366dd" stroke="#2244aa" stroke-width="1.8"/>
<text x="117.0" y="142.0" text-anchor="middle" dominant-baseline="central" fill="white" font-size="10" font-weight="bold" font-family="Courier New,monospace">N</text>
<circle cx="221.0" cy="55.0" r="12" fill="#ffffff" opacity="0.12"/>
<circle cx="221.0" cy="55.0" r="9" fill="#ffffff" stroke="#aaaaaa" stroke-width="1.5"/>
<text x="221.0" y="55.0" text-anchor="middle" dominant-baseline="central" fill="#333333" font-size="7" font-weight="bold" font-family="Courier New,monospace">H</text>
<circle cx="129.0" cy="175.0" r="12" fill="#ffffff" opacity="0.12"/>
<circle cx="129.0" cy="175.0" r="9" fill="#ffffff" stroke="#aaaaaa" stroke-width="1.5"/>
<text x="129.0" y="175.0" text-anchor="middle" dominant-baseline="central" fill="#333333" font-size="7" font-weight="bold" font-family="Courier New,monospace">H</text>
<circle cx="155.0" cy="115.0" r="17" fill="#909090" opacity="0.15"/>
<circle cx="155.0" cy="115.0" r="12" fill="#909090" stroke="#606060" stroke-width="1.8"/>
<text x="155.0" y="115.0" text-anchor="middle" dominant-baseline="central" fill="white" font-size="10" font-weight="bold" font-family="Courier New,monospace">C</text>
<circle cx="195.0" cy="115.0" r="17" fill="#909090" opacity="0.15"/>
<circle cx="195.0" cy="115.0" r="12" fill="#909090" stroke="#606060" stroke-width="1.8"/>
<text x="195.0" y="115.0" text-anchor="middle" dominant-baseline="central" fill="white" font-size="10" font-weight="bold" font-family="Courier New,monospace">C</text>

<polygon points="455.3,132.5 425.0,150.0 394.7,132.5 394.7,97.5 425.0,80.0 455.3,97.5" fill="none" stroke="#a8988a" stroke-width="2.2" stroke-linejoin="round"/>
<circle cx="425.0" cy="115.0" r="19.2" fill="none" stroke="#a8988a" stroke-width="1.3" stroke-dasharray="4,3" opacity="0.75"/>
<polygon points="655.3,132.5 625.0,150.0 594.7,132.5 594.7,97.5 625.0,80.0 655.3,97.5" fill="none" stroke="#a8988a" stroke-width="2.2" stroke-linejoin="round"/>
<circle cx="625.0" cy="115.0" r="19.2" fill="none" stroke="#a8988a" stroke-width="1.3" stroke-dasharray="4,3" opacity="0.75"/>
<line x1="455.3" y1="97.5" x2="467.0" y2="88.0" stroke="#a8988a" stroke-width="2.2" stroke-linecap="round"/>
<line x1="455.3" y1="132.5" x2="467.0" y2="142.0" stroke="#a8988a" stroke-width="2.2" stroke-linecap="round"/>
<line x1="594.7" y1="97.5" x2="583.0" y2="88.0" stroke="#a8988a" stroke-width="2.2" stroke-linecap="round"/>
<line x1="594.7" y1="132.5" x2="583.0" y2="142.0" stroke="#a8988a" stroke-width="2.2" stroke-linecap="round"/>
<line x1="467.0" y1="88.0" x2="505.0" y2="115.0" stroke="#a8988a" stroke-width="2.2" stroke-linecap="round"/>
<line x1="583.0" y1="88.0" x2="545.0" y2="115.0" stroke="#a8988a" stroke-width="2.2" stroke-linecap="round"/>
<line x1="467.0" y1="142.0" x2="505.0" y2="115.0" stroke="#a8988a" stroke-width="2.2" stroke-linecap="round"/>
<line x1="583.0" y1="142.0" x2="545.0" y2="115.0" stroke="#a8988a" stroke-width="2.2" stroke-linecap="round"/>
<line x1="467.0" y1="88.0" x2="479.0" y2="45.0" stroke="#a8988a" stroke-width="2.2" stroke-linecap="round"/>
<line x1="583.0" y1="142.0" x2="571.0" y2="185.0" stroke="#a8988a" stroke-width="2.2" stroke-linecap="round"/>
<line x1="583.0" y1="88.0" x2="571.0" y2="55.0" stroke="#a8988a" stroke-width="1.8" stroke-linecap="round"/>
<line x1="467.0" y1="142.0" x2="479.0" y2="175.0" stroke="#a8988a" stroke-width="1.8" stroke-linecap="round"/>
<line x1="505.0" y1="115.0" x2="545.0" y2="115.0" stroke="#5a5a4a" stroke-width="2.2" stroke-linecap="round"/>
<circle cx="479.0" cy="45.0" r="18" fill="#dd2222" opacity="0.15"/>
<circle cx="479.0" cy="45.0" r="13" fill="#dd2222" stroke="#aa1111" stroke-width="1.8"/>
<text x="479.0" y="45.0" text-anchor="middle" dominant-baseline="central" fill="white" font-size="10" font-weight="bold" font-family="Courier New,monospace">O</text>
<circle cx="571.0" cy="185.0" r="18" fill="#dd2222" opacity="0.15"/>
<circle cx="571.0" cy="185.0" r="13" fill="#dd2222" stroke="#aa1111" stroke-width="1.8"/>
<text x="571.0" y="185.0" text-anchor="middle" dominant-baseline="central" fill="white" font-size="10" font-weight="bold" font-family="Courier New,monospace">O</text>
<circle cx="467.0" cy="88.0" r="13" fill="#909090" opacity="0.12"/>
<circle cx="467.0" cy="88.0" r="10" fill="#909090" stroke="#606060" stroke-width="1.5"/>
<text x="467.0" y="88.0" text-anchor="middle" dominant-baseline="central" fill="white" font-size="8" font-weight="bold" font-family="Courier New,monospace">C</text>
<circle cx="583.0" cy="142.0" r="13" fill="#909090" opacity="0.12"/>
<circle cx="583.0" cy="142.0" r="10" fill="#909090" stroke="#606060" stroke-width="1.5"/>
<text x="583.0" y="142.0" text-anchor="middle" dominant-baseline="central" fill="white" font-size="8" font-weight="bold" font-family="Courier New,monospace">C</text>
<circle cx="583.0" cy="88.0" r="18" fill="#3366dd" opacity="0.15"/>
<circle cx="583.0" cy="88.0" r="13" fill="#3366dd" stroke="#2244aa" stroke-width="1.8"/>
<text x="583.0" y="88.0" text-anchor="middle" dominant-baseline="central" fill="white" font-size="10" font-weight="bold" font-family="Courier New,monospace">N</text>
<circle cx="467.0" cy="142.0" r="18" fill="#3366dd" opacity="0.15"/>
<circle cx="467.0" cy="142.0" r="13" fill="#3366dd" stroke="#2244aa" stroke-width="1.8"/>
<text x="467.0" y="142.0" text-anchor="middle" dominant-baseline="central" fill="white" font-size="10" font-weight="bold" font-family="Courier New,monospace">N</text>
<circle cx="571.0" cy="55.0" r="12" fill="#ffffff" opacity="0.12"/>
<circle cx="571.0" cy="55.0" r="9" fill="#ffffff" stroke="#aaaaaa" stroke-width="1.5"/>
<text x="571.0" y="55.0" text-anchor="middle" dominant-baseline="central" fill="#333333" font-size="7" font-weight="bold" font-family="Courier New,monospace">H</text>
<circle cx="479.0" cy="175.0" r="12" fill="#ffffff" opacity="0.12"/>
<circle cx="479.0" cy="175.0" r="9" fill="#ffffff" stroke="#aaaaaa" stroke-width="1.5"/>
<text x="479.0" y="175.0" text-anchor="middle" dominant-baseline="central" fill="#333333" font-size="7" font-weight="bold" font-family="Courier New,monospace">H</text>
<circle cx="505.0" cy="115.0" r="17" fill="#909090" opacity="0.15"/>
<circle cx="505.0" cy="115.0" r="12" fill="#909090" stroke="#606060" stroke-width="1.8"/>
<text x="505.0" y="115.0" text-anchor="middle" dominant-baseline="central" fill="white" font-size="10" font-weight="bold" font-family="Courier New,monospace">C</text>
<circle cx="545.0" cy="115.0" r="17" fill="#909090" opacity="0.15"/>
<circle cx="545.0" cy="115.0" r="12" fill="#909090" stroke="#606060" stroke-width="1.8"/>
<text x="545.0" y="115.0" text-anchor="middle" dominant-baseline="central" fill="white" font-size="10" font-weight="bold" font-family="Courier New,monospace">C</text>
<line x1="479.0" y1="45.0" x2="465.0" y2="27.0" stroke="#a8988a" stroke-width="1.6" stroke-linecap="round"/>
<line x1="571.0" y1="185.0" x2="585.0" y2="203.0" stroke="#a8988a" stroke-width="1.6" stroke-linecap="round"/>
<circle cx="465.0" cy="27.0" r="11" fill="#ffffff" opacity="0.12"/>
<circle cx="465.0" cy="27.0" r="8" fill="#ffffff" stroke="#aaaaaa" stroke-width="1.5"/>
<text x="465.0" y="27.0" text-anchor="middle" dominant-baseline="central" fill="#333333" font-size="7" font-weight="bold" font-family="Courier New,monospace">H</text>
<circle cx="585.0" cy="203.0" r="11" fill="#ffffff" opacity="0.12"/>
<circle cx="585.0" cy="203.0" r="8" fill="#ffffff" stroke="#aaaaaa" stroke-width="1.5"/>
<text x="585.0" y="203.0" text-anchor="middle" dominant-baseline="central" fill="#333333" font-size="7" font-weight="bold" font-family="Courier New,monospace">H</text>
<defs><marker id="arr1" markerWidth="6" markerHeight="5" refX="5" refY="2.5" orient="auto"><polygon points="0 0,6 2.5,0 5" fill="#e8c000"/></marker></defs>
<line x1="290" y1="115" x2="407" y2="115" stroke="#e8c000" stroke-width="2" marker-end="url(#arr1)"/>
<text x="350" y="105" text-anchor="middle" fill="#e8c000" font-size="8.5" font-weight="bold" font-family="Georgia,serif">Bacteria</text>
<text x="350" y="129" text-anchor="middle" fill="#8a7a60" font-size="8" font-family="Georgia,serif">reduction</text>
<defs><marker id="arr2" markerWidth="6" markerHeight="5" refX="5" refY="2.5" orient="auto"><polygon points="0 0,6 2.5,0 5" fill="#e8c000"/></marker></defs>
<line x1="525" y1="272" x2="370" y2="310" stroke="#e8c000" stroke-width="2" marker-end="url(#arr2)"/>
<text x="555" y="284" text-anchor="start" fill="#e8c000" font-size="8.5" font-weight="bold" font-family="Georgia,serif">Alkalinity</text>
<text x="555" y="298" text-anchor="start" fill="#8a7a60" font-size="8" font-family="Georgia,serif">ionization</text>

<polygon points="280.3,377.5 250.0,395.0 219.7,377.5 219.7,342.5 250.0,325.0 280.3,342.5" fill="none" stroke="#a8988a" stroke-width="2.2" stroke-linejoin="round"/>
<circle cx="250.0" cy="360.0" r="19.2" fill="none" stroke="#a8988a" stroke-width="1.3" stroke-dasharray="4,3" opacity="0.75"/>
<polygon points="480.3,377.5 450.0,395.0 419.7,377.5 419.7,342.5 450.0,325.0 480.3,342.5" fill="none" stroke="#a8988a" stroke-width="2.2" stroke-linejoin="round"/>
<circle cx="450.0" cy="360.0" r="19.2" fill="none" stroke="#a8988a" stroke-width="1.3" stroke-dasharray="4,3" opacity="0.75"/>
<line x1="280.3" y1="342.5" x2="292.0" y2="333.0" stroke="#a8988a" stroke-width="2.2" stroke-linecap="round"/>
<line x1="280.3" y1="377.5" x2="292.0" y2="387.0" stroke="#a8988a" stroke-width="2.2" stroke-linecap="round"/>
<line x1="419.7" y1="342.5" x2="408.0" y2="333.0" stroke="#a8988a" stroke-width="2.2" stroke-linecap="round"/>
<line x1="419.7" y1="377.5" x2="408.0" y2="387.0" stroke="#a8988a" stroke-width="2.2" stroke-linecap="round"/>
<line x1="292.0" y1="333.0" x2="330.0" y2="360.0" stroke="#a8988a" stroke-width="2.2" stroke-linecap="round"/>
<line x1="408.0" y1="333.0" x2="370.0" y2="360.0" stroke="#a8988a" stroke-width="2.2" stroke-linecap="round"/>
<line x1="292.0" y1="387.0" x2="330.0" y2="360.0" stroke="#a8988a" stroke-width="2.2" stroke-linecap="round"/>
<line x1="408.0" y1="387.0" x2="370.0" y2="360.0" stroke="#a8988a" stroke-width="2.2" stroke-linecap="round"/>
<line x1="292.0" y1="333.0" x2="304.0" y2="290.0" stroke="#a8988a" stroke-width="2.2" stroke-linecap="round"/>
<line x1="408.0" y1="387.0" x2="396.0" y2="430.0" stroke="#a8988a" stroke-width="2.2" stroke-linecap="round"/>
<line x1="408.0" y1="333.0" x2="396.0" y2="300.0" stroke="#a8988a" stroke-width="1.8" stroke-linecap="round"/>
<line x1="292.0" y1="387.0" x2="304.0" y2="420.0" stroke="#a8988a" stroke-width="1.8" stroke-linecap="round"/>
<line x1="330.0" y1="360.0" x2="370.0" y2="360.0" stroke="#5a5a4a" stroke-width="2.2" stroke-linecap="round"/>
<circle cx="304.0" cy="290.0" r="18" fill="#dd2222" opacity="0.15"/>
<circle cx="304.0" cy="290.0" r="13" fill="#dd2222" stroke="#aa1111" stroke-width="1.8"/>
<text x="304.0" y="290.0" text-anchor="middle" dominant-baseline="central" fill="white" font-size="10" font-weight="bold" font-family="Courier New,monospace">O</text>
<circle cx="396.0" cy="430.0" r="18" fill="#dd2222" opacity="0.15"/>
<circle cx="396.0" cy="430.0" r="13" fill="#dd2222" stroke="#aa1111" stroke-width="1.8"/>
<text x="396.0" y="430.0" text-anchor="middle" dominant-baseline="central" fill="white" font-size="10" font-weight="bold" font-family="Courier New,monospace">O</text>
<circle cx="292.0" cy="333.0" r="13" fill="#909090" opacity="0.12"/>
<circle cx="292.0" cy="333.0" r="10" fill="#909090" stroke="#606060" stroke-width="1.5"/>
<text x="292.0" y="333.0" text-anchor="middle" dominant-baseline="central" fill="white" font-size="8" font-weight="bold" font-family="Courier New,monospace">C</text>
<circle cx="408.0" cy="387.0" r="13" fill="#909090" opacity="0.12"/>
<circle cx="408.0" cy="387.0" r="10" fill="#909090" stroke="#606060" stroke-width="1.5"/>
<text x="408.0" y="387.0" text-anchor="middle" dominant-baseline="central" fill="white" font-size="8" font-weight="bold" font-family="Courier New,monospace">C</text>
<circle cx="408.0" cy="333.0" r="18" fill="#3366dd" opacity="0.15"/>
<circle cx="408.0" cy="333.0" r="13" fill="#3366dd" stroke="#2244aa" stroke-width="1.8"/>
<text x="408.0" y="333.0" text-anchor="middle" dominant-baseline="central" fill="white" font-size="10" font-weight="bold" font-family="Courier New,monospace">N</text>
<circle cx="292.0" cy="387.0" r="18" fill="#3366dd" opacity="0.15"/>
<circle cx="292.0" cy="387.0" r="13" fill="#3366dd" stroke="#2244aa" stroke-width="1.8"/>
<text x="292.0" y="387.0" text-anchor="middle" dominant-baseline="central" fill="white" font-size="10" font-weight="bold" font-family="Courier New,monospace">N</text>
<circle cx="396.0" cy="300.0" r="12" fill="#ffffff" opacity="0.12"/>
<circle cx="396.0" cy="300.0" r="9" fill="#ffffff" stroke="#aaaaaa" stroke-width="1.5"/>
<text x="396.0" y="300.0" text-anchor="middle" dominant-baseline="central" fill="#333333" font-size="7" font-weight="bold" font-family="Courier New,monospace">H</text>
<circle cx="304.0" cy="420.0" r="12" fill="#ffffff" opacity="0.12"/>
<circle cx="304.0" cy="420.0" r="9" fill="#ffffff" stroke="#aaaaaa" stroke-width="1.5"/>
<text x="304.0" y="420.0" text-anchor="middle" dominant-baseline="central" fill="#333333" font-size="7" font-weight="bold" font-family="Courier New,monospace">H</text>
<circle cx="330.0" cy="360.0" r="17" fill="#909090" opacity="0.15"/>
<circle cx="330.0" cy="360.0" r="12" fill="#909090" stroke="#606060" stroke-width="1.8"/>
<text x="330.0" y="360.0" text-anchor="middle" dominant-baseline="central" fill="white" font-size="10" font-weight="bold" font-family="Courier New,monospace">C</text>
<circle cx="370.0" cy="360.0" r="17" fill="#909090" opacity="0.15"/>
<circle cx="370.0" cy="360.0" r="12" fill="#909090" stroke="#606060" stroke-width="1.8"/>
<text x="370.0" y="360.0" text-anchor="middle" dominant-baseline="central" fill="white" font-size="10" font-weight="bold" font-family="Courier New,monospace">C</text>
<text x="320.0" y="280.0" fill="#ff9966" font-size="11" font-weight="bold" font-family="Courier New,monospace" opacity="0.9">−</text>
<text x="412.0" y="420.0" fill="#ff9966" font-size="11" font-weight="bold" font-family="Courier New,monospace" opacity="0.9">−</text>
<text x="140" y="290" text-anchor="middle" fill="#4a7a9a" font-size="8" font-family="Courier New,monospace" opacity="0.38">H₂O</text>
<text x="570" y="295" text-anchor="middle" fill="#4a7a9a" font-size="8" font-family="Courier New,monospace" opacity="0.38">H₂O</text>
<text x="130" y="380" text-anchor="middle" fill="#4a7a9a" font-size="8" font-family="Courier New,monospace" opacity="0.38">H₂O</text>
<text x="575" y="375" text-anchor="middle" fill="#4a7a9a" font-size="8" font-family="Courier New,monospace" opacity="0.38">H₂O</text>
<text x="148" y="445" text-anchor="middle" fill="#4a7a9a" font-size="8" font-family="Courier New,monospace" opacity="0.38">H₂O</text>
<text x="560" y="448" text-anchor="middle" fill="#4a7a9a" font-size="8" font-family="Courier New,monospace" opacity="0.38">H₂O</text>
<text x="210" y="465" text-anchor="middle" fill="#4a7a9a" font-size="8" font-family="Courier New,monospace" opacity="0.38">H₂O</text>
<text x="490" y="462" text-anchor="middle" fill="#4a7a9a" font-size="8" font-family="Courier New,monospace" opacity="0.38">H₂O</text>
<text x="108" y="335" text-anchor="middle" fill="#4a7a9a" font-size="8" font-family="Courier New,monospace" opacity="0.38">H₂O</text>
<text x="600" y="340" text-anchor="middle" fill="#4a7a9a" font-size="8" font-family="Courier New,monospace" opacity="0.38">H₂O</text>
<rect x="93" y="230" width="164" height="30" rx="4" fill="#1e5fa8" opacity="0.9"/>
<text x="175" y="241" text-anchor="middle" dominant-baseline="central" fill="white" font-size="8.5" font-weight="bold" font-family="Georgia,serif">INDIGOTIN</text>
<text x="175" y="253" text-anchor="middle" dominant-baseline="central" fill="white" font-size="7.5" font-family="Georgia,serif" opacity="0.85">blue · insoluble</text>
<rect x="443" y="230" width="164" height="30" rx="4" fill="#9a8a30" opacity="0.9"/>
<text x="525" y="241" text-anchor="middle" dominant-baseline="central" fill="#fdf5c0" font-size="8.5" font-weight="bold" font-family="Georgia,serif">LEUCO FORM</text>
<text x="525" y="253" text-anchor="middle" dominant-baseline="central" fill="#fdf5c0" font-size="7.5" font-family="Georgia,serif" opacity="0.85">colorless · insoluble</text>
<rect x="268" y="490" width="164" height="30" rx="4" fill="#9a8a30" opacity="0.9"/>
<text x="350" y="501" text-anchor="middle" dominant-baseline="central" fill="#fdf5c0" font-size="8.5" font-weight="bold" font-family="Georgia,serif">IONIZED LEUCO</text>
<text x="350" y="513" text-anchor="middle" dominant-baseline="central" fill="#fdf5c0" font-size="7.5" font-family="Georgia,serif" opacity="0.85">charged · water-soluble</text>
</svg>
